<?xml version="1.0" encoding="UTF-8"?>
<svg version="1.1" xmlns="http://www.w3.org/2000/svg" width="551" height="537">
<path d="M0 0 C1.71316406 0.00966797 1.71316406 0.00966797 3.4609375 0.01953125 C22.6969357 0.56394629 37.61513313 9.32304975 51.21484375 22.390625 C53.90927347 25.05801552 53.90927347 25.05801552 57 27 C57 28.32 57 29.64 57 31 C57.99 31 58.98 31 60 31 C60 31.66 60 32.32 60 33 C61.28583984 32.94779297 61.28583984 32.94779297 62.59765625 32.89453125 C63.74105469 32.86746094 64.88445312 32.84039062 66.0625 32.8125 C67.18785156 32.77769531 68.31320312 32.74289063 69.47265625 32.70703125 C73.56464659 33.04689756 76.31751583 34.20607475 80 36 C81.13179688 36.53496094 82.26359375 37.06992188 83.4296875 37.62109375 C92.15688079 42.22216504 98.33093384 46.9755517 103 56 C103.6561234 59.07764357 103.54335895 60.86059276 103 64 C104.0725 63.9175 105.145 63.835 106.25 63.75 C115.14365194 63.79730666 123.09235753 67.10675907 129.44140625 73.2578125 C134 78.35338346 134 78.35338346 134 82 C134.99 82.33 135.98 82.66 137 83 C137.8515625 85.07421875 137.8515625 85.07421875 138.625 87.6875 C141.17851586 94.53600996 145.7883192 96.97870064 152.140625 100.02734375 C153.74012784 100.73281553 155.36745926 101.37477163 157 102 C157 103.65 157 105.3 157 107 C158.0828125 106.814375 158.0828125 106.814375 159.1875 106.625 C162 107 162 107 164.5625 109.25 C168.86190978 115.04076755 170.55210987 122.35726223 171.8203125 129.34765625 C173.01163666 137.36980648 173.01163666 137.36980648 177.04296875 144.1015625 C178.58346707 145.02534541 180.15648326 145.89714723 181.7578125 146.7109375 C185.88267457 149.08237388 187.80387999 152.90142718 190 157 C190.4640625 157.82757813 190.928125 158.65515625 191.40625 159.5078125 C196.10488243 169.09630078 196.37047694 179.50893182 197 190 C197.9427478 190.19094238 197.9427478 190.19094238 198.90454102 190.38574219 C202.61012538 191.47198828 203.66764603 194.77673851 205.4921875 197.9765625 C207.59774887 202.19859489 209.18120478 206.5566306 210.765625 210.99609375 C211.88060613 213.70944974 212.99049593 215.44070285 214.8125 217.6875 C219.4604764 224.54253438 217.60457409 235.59016544 216.53515625 243.390625 C216.09797863 245.62437925 215.61634908 247.8097595 215 250 C215.99 250.66 216.98 251.32 218 252 C219.3515625 255.00390625 219.3515625 255.00390625 220.625 258.5625 C221.80665945 262.57202852 221.80665945 262.57202852 224 266 C223.99238298 269.838976 223.9228092 273.6675784 223.78515625 277.50390625 C223.69266137 282.8770179 224.47984818 287.00658235 226.35009766 292.03515625 C227.17012647 294.51434177 227.16022734 296.43162013 226.75 299 C226.6365625 299.83015625 226.523125 300.6603125 226.40625 301.515625 C226.1387341 303.1515876 225.86798291 304.78702495 225.59375 306.421875 C224.81165816 311.71876972 225.22673855 314.24583752 228 319 C228.84856583 321.33157339 229.60331949 323.68146163 230.3515625 326.046875 C230.96403589 328.04691317 230.96403589 328.04691317 232 330 C232.17468315 339.33307138 230.75609775 348.39924519 228.8125 357.5 C228.53672119 358.87816895 228.53672119 358.87816895 228.25537109 360.28417969 C226.83761272 366.5150634 224.61361482 371.4671287 220 376 C217.80786133 377.21679688 217.80786133 377.21679688 216 378 C216 378.66 216 379.32 216 380 C214.5390625 381.2890625 214.5390625 381.2890625 212.625 382.625 C211.99851562 383.07101562 211.37203125 383.51703125 210.7265625 383.9765625 C209 385 209 385 207 385 C207 385.66 207 386.32 207 387 C205.68 387.33 204.36 387.66 203 388 C203 388.66 203 389.32 203 390 C201.9275 390.0825 200.855 390.165 199.75 390.25 C195.66499825 391.06700035 194.65108323 391.9561637 192 395 C191.34 395 190.68 395 190 395 C189.90332031 395.74121094 189.80664062 396.48242188 189.70703125 397.24609375 C188.90624039 400.36519629 187.86059322 401.72188782 185.6875 404.0625 C185.05457031 404.75085938 184.42164063 405.43921875 183.76953125 406.1484375 C181.87457128 408.1312433 179.97210774 410.09362919 178 412 C177.29359375 412.78761719 176.5871875 413.57523437 175.859375 414.38671875 C172.55411454 417.40751007 169.47032876 418.9351114 165.375 420.625 C164.66641846 420.92422363 163.95783691 421.22344727 163.2277832 421.53173828 C154.68448177 425.06295663 146.56596425 427.22417079 137.3125 427.7890625 C134.84228908 427.92549096 134.84228908 427.92549096 132 429 C124.73939808 429.9047827 117.43401466 430.09858187 110.125 430.125 C109.4242334 430.12959229 108.7234668 430.13418457 108.00146484 430.13891602 C103.55830025 430.12572685 99.36983973 429.7187987 95 429 C95 429.66 95 430.32 95 431 C94.401875 431.268125 93.80375 431.53625 93.1875 431.8125 C90.998356 432.84542096 90.998356 432.84542096 89.7109375 434.41796875 C76.81802054 446.33950155 53.5823241 445.09978497 37.44726562 445.60546875 C30.52503035 445.84217878 30.52503035 445.84217878 23.63671875 446.51953125 C17.11814272 447.31608952 10.55711685 447.18428573 4 447.1875 C2.68515625 447.19974609 1.3703125 447.21199219 0.015625 447.22460938 C-6.9756106 447.23513834 -13.26917383 446.95106922 -20 445 C-20.33 444.67 -20.66 444.34 -21 444 C-25.49355557 444.29957037 -29.01342048 445.39523311 -33.1875 447.0625 C-45.97257099 451.39886325 -59.14711717 450.23450711 -71.36328125 444.921875 C-78.64656593 441.77252721 -86.30989983 439.56940074 -93.86157227 437.16040039 C-94.98490967 436.79422607 -96.10824707 436.42805176 -97.265625 436.05078125 C-98.27399414 435.72762939 -99.28236328 435.40447754 -100.32128906 435.0715332 C-102.97091998 434.01163254 -104.77559773 432.75649451 -107 431 C-109.26417486 430.05613915 -111.56007452 429.1864685 -113.875 428.375 C-115.06867188 427.94960938 -116.26234375 427.52421875 -117.4921875 427.0859375 C-124.33460524 424.96768346 -128.65772947 425.08520195 -135.4375 426.9375 C-145.00941549 429.5155359 -151.86685588 429.11499883 -161.25 425.875 C-162.18730957 425.55587646 -163.12461914 425.23675293 -164.09033203 424.90795898 C-169.78785888 422.91516204 -175.11112135 420.71549495 -180.3046875 417.609375 C-182.47445775 416.31380204 -184.64318501 415.11872237 -186.8828125 413.953125 C-187.56359863 413.59855225 -188.24438477 413.24397949 -188.94580078 412.87866211 C-190.28395728 412.18413758 -191.62341581 411.49211417 -192.96435547 410.80297852 C-198.97207121 407.64674529 -198.97207121 407.64674529 -201 405 C-201 404.34 -201 403.68 -201 403 C-201.5775 402.938125 -202.155 402.87625 -202.75 402.8125 C-205.94710041 401.65799152 -207.1436532 399.78452021 -209 397 C-209 396.01 -209 395.02 -209 394 C-209.59167969 394.02320313 -210.18335938 394.04640625 -210.79296875 394.0703125 C-215.33801959 394.17411464 -218.85940059 394.13708357 -223 392 C-223 391.01 -223 390.02 -223 389 C-223.680625 388.95875 -224.36125 388.9175 -225.0625 388.875 C-228.66474063 387.80199215 -230.55753217 386.04614748 -233.30078125 383.546875 C-235.11370361 381.85307385 -235.11370361 381.85307385 -237.6875 379.9375 C-240.22542558 377.81112992 -242.14667571 375.74566561 -244 373 C-244 371.68 -244 370.36 -244 369 C-244.66 369 -245.32 369 -246 369 C-247.11639106 367.0486096 -248.21742273 365.08843048 -249.3125 363.125 C-249.92738281 362.03445313 -250.54226562 360.94390625 -251.17578125 359.8203125 C-255.3276931 351.60796973 -256.45621268 344.18501407 -255.8125 335.0625 C-255.76802734 334.13115234 -255.72355469 333.19980469 -255.67773438 332.24023438 C-255.27875198 325.41812797 -255.27875198 325.41812797 -253 322 C-252.34 322 -251.68 322 -251 322 C-250.87625 321.319375 -250.7525 320.63875 -250.625 319.9375 C-250 317 -250 317 -248.875 313.75 C-247.97002008 309.87151464 -248.1537514 307.43973408 -248.69921875 303.58203125 C-249.61039318 295.76013129 -249.23031038 288.34117895 -247.4296875 280.70703125 C-246.89818373 277.35855748 -247.01946805 274.20007563 -247.125 270.8125 C-247.32213526 257.86728456 -243.75523046 246.65320282 -235 237 C-234.34 237 -233.68 237 -233 237 C-232.9906543 236.34104736 -232.98130859 235.68209473 -232.97167969 235.00317383 C-232.58552765 213.3237653 -229.05393929 194.61124335 -214 178 C-213.34 178 -212.68 178 -212 178 C-211.74605469 177.4225 -211.49210937 176.845 -211.23046875 176.25 C-207.70111743 169.79632902 -201.52223385 165.13067225 -195 162 C-194.34 162 -193.68 162 -193 162 C-193.01160156 161.01 -193.02320313 160.02 -193.03515625 159 C-193.0897219 152.26199467 -193.08898024 145.67000397 -192 139 C-191.34 139 -190.68 139 -190 139 C-189.67 137.35 -189.34 135.7 -189 134 C-188.34 134 -187.68 134 -187 134 C-186.67 132.35 -186.34 130.7 -186 129 C-185.01 128.67 -184.02 128.34 -183 128 C-182.814375 127.13375 -182.814375 127.13375 -182.625 126.25 C-181.06128394 120.6206222 -174.6329858 117.18940655 -170.0859375 114.0390625 C-165.39976838 109.45820055 -164.4644838 103.21556227 -163.5 97 C-162.28961693 89.19975353 -160.56710554 82.92823052 -154.5 77.4375 C-151.72969416 74.81862567 -150.06932189 73.14131 -148.375 69.6875 C-146.36571778 65.76026656 -143.93888431 64.93489054 -140 63 C-139.2575 62.5875 -138.515 62.175 -137.75 61.75 C-136 61 -136 61 -133 61 C-133 60.34 -133 59.68 -133 59 C-129.9238458 57.31982281 -126.83800131 55.65828808 -123.75 54 C-122.87730469 53.52304688 -122.00460938 53.04609375 -121.10546875 52.5546875 C-119.83896484 51.87792969 -119.83896484 51.87792969 -118.546875 51.1875 C-117.77182617 50.76855469 -116.99677734 50.34960938 -116.19824219 49.91796875 C-114 49 -114 49 -110 49 C-109.67 48.01 -109.34 47.02 -109 46 C-106.96875 45.12109375 -106.96875 45.12109375 -104.5 44.4375 C-102.08504595 43.79615283 -102.08504595 43.79615283 -100 43 C-99.67 42.34 -99.34 41.68 -99 41 C-98.34 41 -97.68 41 -97 41 C-97 40.01 -97 39.02 -97 38 C-96.34 38 -95.68 38 -95 38 C-94.9071875 37.40445313 -94.814375 36.80890625 -94.71875 36.1953125 C-93.83342903 33.49123431 -92.72039762 32.61309813 -90.5 30.875 C-87.8119616 28.80112319 -87.8119616 28.80112319 -86 26 C-85.34 26 -84.68 26 -84 26 C-83.67 25.01 -83.34 24.02 -83 23 C-80.7421875 21.68359375 -80.7421875 21.68359375 -77.875 20.4375 C-76.94429687 20.02371094 -76.01359375 19.60992187 -75.0546875 19.18359375 C-67.07992335 16.09362759 -60.10458543 15.598688 -51.5625 15.375 C-49.74975586 15.31699219 -49.74975586 15.31699219 -47.90039062 15.2578125 C-44.93374183 15.16400542 -41.96709164 15.07830754 -39 15 C-38.67 14.01 -38.34 13.02 -38 12 C-35 10 -35 10 -32 10 C-32 9.34 -32 8.68 -32 8 C-31.34 8 -30.68 8 -30 8 C-29.67 7.01 -29.34 6.02 -29 5 C-20.78204278 -0.5526738 -9.56274118 -0.36585685 0 0 Z " fill="#FDFDFD" transform="translate(279,42)"/>
<path d="M0 0 C1.71316406 0.00966797 1.71316406 0.00966797 3.4609375 0.01953125 C22.6969357 0.56394629 37.61513313 9.32304975 51.21484375 22.390625 C53.90927347 25.05801552 53.90927347 25.05801552 57 27 C57 28.32 57 29.64 57 31 C57.99 31 58.98 31 60 31 C60 31.66 60 32.32 60 33 C61.28583984 32.94779297 61.28583984 32.94779297 62.59765625 32.89453125 C63.74105469 32.86746094 64.88445312 32.84039062 66.0625 32.8125 C67.18785156 32.77769531 68.31320312 32.74289063 69.47265625 32.70703125 C73.56464659 33.04689756 76.31751583 34.20607475 80 36 C81.13179688 36.53496094 82.26359375 37.06992188 83.4296875 37.62109375 C92.15688079 42.22216504 98.33093384 46.9755517 103 56 C103.6561234 59.07764357 103.54335895 60.86059276 103 64 C104.0725 63.9175 105.145 63.835 106.25 63.75 C115.14365194 63.79730666 123.09235753 67.10675907 129.44140625 73.2578125 C134 78.35338346 134 78.35338346 134 82 C134.99 82.33 135.98 82.66 137 83 C137.8515625 85.07421875 137.8515625 85.07421875 138.625 87.6875 C141.17851586 94.53600996 145.7883192 96.97870064 152.140625 100.02734375 C153.74012784 100.73281553 155.36745926 101.37477163 157 102 C157 103.65 157 105.3 157 107 C158.0828125 106.814375 158.0828125 106.814375 159.1875 106.625 C162 107 162 107 164.5625 109.25 C168.86190978 115.04076755 170.55210987 122.35726223 171.8203125 129.34765625 C173.01163666 137.36980648 173.01163666 137.36980648 177.04296875 144.1015625 C178.58346707 145.02534541 180.15648326 145.89714723 181.7578125 146.7109375 C185.88267457 149.08237388 187.80387999 152.90142718 190 157 C190.4640625 157.82757813 190.928125 158.65515625 191.40625 159.5078125 C196.10488243 169.09630078 196.37047694 179.50893182 197 190 C197.9427478 190.19094238 197.9427478 190.19094238 198.90454102 190.38574219 C202.61012538 191.47198828 203.66764603 194.77673851 205.4921875 197.9765625 C207.59774887 202.19859489 209.18120478 206.5566306 210.765625 210.99609375 C211.88060613 213.70944974 212.99049593 215.44070285 214.8125 217.6875 C219.4604764 224.54253438 217.60457409 235.59016544 216.53515625 243.390625 C216.09797863 245.62437925 215.61634908 247.8097595 215 250 C215.99 250.66 216.98 251.32 218 252 C219.3515625 255.00390625 219.3515625 255.00390625 220.625 258.5625 C221.80665945 262.57202852 221.80665945 262.57202852 224 266 C223.99238298 269.838976 223.9228092 273.6675784 223.78515625 277.50390625 C223.69266137 282.8770179 224.47984818 287.00658235 226.35009766 292.03515625 C227.17012647 294.51434177 227.16022734 296.43162013 226.75 299 C226.6365625 299.83015625 226.523125 300.6603125 226.40625 301.515625 C226.1387341 303.1515876 225.86798291 304.78702495 225.59375 306.421875 C224.81165816 311.71876972 225.22673855 314.24583752 228 319 C228.84856583 321.33157339 229.60331949 323.68146163 230.3515625 326.046875 C230.96403589 328.04691317 230.96403589 328.04691317 232 330 C232.17468315 339.33307138 230.75609775 348.39924519 228.8125 357.5 C228.53672119 358.87816895 228.53672119 358.87816895 228.25537109 360.28417969 C226.83761272 366.5150634 224.61361482 371.4671287 220 376 C217.80786133 377.21679688 217.80786133 377.21679688 216 378 C216 378.66 216 379.32 216 380 C214.5390625 381.2890625 214.5390625 381.2890625 212.625 382.625 C211.99851562 383.07101562 211.37203125 383.51703125 210.7265625 383.9765625 C209 385 209 385 207 385 C207 385.66 207 386.32 207 387 C205.68 387.33 204.36 387.66 203 388 C203 388.66 203 389.32 203 390 C201.9275 390.0825 200.855 390.165 199.75 390.25 C195.66499825 391.06700035 194.65108323 391.9561637 192 395 C191.34 395 190.68 395 190 395 C189.90332031 395.74121094 189.80664062 396.48242188 189.70703125 397.24609375 C188.90624039 400.36519629 187.86059322 401.72188782 185.6875 404.0625 C185.05457031 404.75085938 184.42164063 405.43921875 183.76953125 406.1484375 C181.87457128 408.1312433 179.97210774 410.09362919 178 412 C177.29359375 412.78761719 176.5871875 413.57523437 175.859375 414.38671875 C172.55411454 417.40751007 169.47032876 418.9351114 165.375 420.625 C164.66641846 420.92422363 163.95783691 421.22344727 163.2277832 421.53173828 C154.68448177 425.06295663 146.56596425 427.22417079 137.3125 427.7890625 C134.84228908 427.92549096 134.84228908 427.92549096 132 429 C124.73939808 429.9047827 117.43401466 430.09858187 110.125 430.125 C109.4242334 430.12959229 108.7234668 430.13418457 108.00146484 430.13891602 C103.55830025 430.12572685 99.36983973 429.7187987 95 429 C95 429.66 95 430.32 95 431 C94.401875 431.268125 93.80375 431.53625 93.1875 431.8125 C90.998356 432.84542096 90.998356 432.84542096 89.7109375 434.41796875 C76.81802054 446.33950155 53.5823241 445.09978497 37.44726562 445.60546875 C30.52503035 445.84217878 30.52503035 445.84217878 23.63671875 446.51953125 C17.11814272 447.31608952 10.55711685 447.18428573 4 447.1875 C2.68515625 447.19974609 1.3703125 447.21199219 0.015625 447.22460938 C-6.9756106 447.23513834 -13.26917383 446.95106922 -20 445 C-20.33 444.67 -20.66 444.34 -21 444 C-25.49355557 444.29957037 -29.01342048 445.39523311 -33.1875 447.0625 C-45.97257099 451.39886325 -59.14711717 450.23450711 -71.36328125 444.921875 C-78.64656593 441.77252721 -86.30989983 439.56940074 -93.86157227 437.16040039 C-94.98490967 436.79422607 -96.10824707 436.42805176 -97.265625 436.05078125 C-98.27399414 435.72762939 -99.28236328 435.40447754 -100.32128906 435.0715332 C-102.97091998 434.01163254 -104.77559773 432.75649451 -107 431 C-109.26417486 430.05613915 -111.56007452 429.1864685 -113.875 428.375 C-115.06867188 427.94960938 -116.26234375 427.52421875 -117.4921875 427.0859375 C-124.33460524 424.96768346 -128.65772947 425.08520195 -135.4375 426.9375 C-145.00941549 429.5155359 -151.86685588 429.11499883 -161.25 425.875 C-162.18730957 425.55587646 -163.12461914 425.23675293 -164.09033203 424.90795898 C-169.78785888 422.91516204 -175.11112135 420.71549495 -180.3046875 417.609375 C-182.47445775 416.31380204 -184.64318501 415.11872237 -186.8828125 413.953125 C-187.56359863 413.59855225 -188.24438477 413.24397949 -188.94580078 412.87866211 C-190.28395728 412.18413758 -191.62341581 411.49211417 -192.96435547 410.80297852 C-198.97207121 407.64674529 -198.97207121 407.64674529 -201 405 C-201 404.34 -201 403.68 -201 403 C-201.5775 402.938125 -202.155 402.87625 -202.75 402.8125 C-205.94710041 401.65799152 -207.1436532 399.78452021 -209 397 C-209 396.01 -209 395.02 -209 394 C-209.59167969 394.02320313 -210.18335938 394.04640625 -210.79296875 394.0703125 C-215.33801959 394.17411464 -218.85940059 394.13708357 -223 392 C-223 391.01 -223 390.02 -223 389 C-223.680625 388.95875 -224.36125 388.9175 -225.0625 388.875 C-228.66474063 387.80199215 -230.55753217 386.04614748 -233.30078125 383.546875 C-235.11370361 381.85307385 -235.11370361 381.85307385 -237.6875 379.9375 C-240.22542558 377.81112992 -242.14667571 375.74566561 -244 373 C-244 371.68 -244 370.36 -244 369 C-244.66 369 -245.32 369 -246 369 C-247.11639106 367.0486096 -248.21742273 365.08843048 -249.3125 363.125 C-249.92738281 362.03445313 -250.54226562 360.94390625 -251.17578125 359.8203125 C-255.3276931 351.60796973 -256.45621268 344.18501407 -255.8125 335.0625 C-255.76802734 334.13115234 -255.72355469 333.19980469 -255.67773438 332.24023438 C-255.27875198 325.41812797 -255.27875198 325.41812797 -253 322 C-252.34 322 -251.68 322 -251 322 C-250.87625 321.319375 -250.7525 320.63875 -250.625 319.9375 C-250 317 -250 317 -248.875 313.75 C-247.97002008 309.87151464 -248.1537514 307.43973408 -248.69921875 303.58203125 C-249.61039318 295.76013129 -249.23031038 288.34117895 -247.4296875 280.70703125 C-246.89818373 277.35855748 -247.01946805 274.20007563 -247.125 270.8125 C-247.32213526 257.86728456 -243.75523046 246.65320282 -235 237 C-234.34 237 -233.68 237 -233 237 C-232.9906543 236.34104736 -232.98130859 235.68209473 -232.97167969 235.00317383 C-232.58552765 213.3237653 -229.05393929 194.61124335 -214 178 C-213.34 178 -212.68 178 -212 178 C-211.74605469 177.4225 -211.49210937 176.845 -211.23046875 176.25 C-207.70111743 169.79632902 -201.52223385 165.13067225 -195 162 C-194.34 162 -193.68 162 -193 162 C-193.01160156 161.01 -193.02320313 160.02 -193.03515625 159 C-193.0897219 152.26199467 -193.08898024 145.67000397 -192 139 C-191.34 139 -190.68 139 -190 139 C-189.67 137.35 -189.34 135.7 -189 134 C-188.34 134 -187.68 134 -187 134 C-186.67 132.35 -186.34 130.7 -186 129 C-185.01 128.67 -184.02 128.34 -183 128 C-182.814375 127.13375 -182.814375 127.13375 -182.625 126.25 C-181.06128394 120.6206222 -174.6329858 117.18940655 -170.0859375 114.0390625 C-165.39976838 109.45820055 -164.4644838 103.21556227 -163.5 97 C-162.28961693 89.19975353 -160.56710554 82.92823052 -154.5 77.4375 C-151.72969416 74.81862567 -150.06932189 73.14131 -148.375 69.6875 C-146.36571778 65.76026656 -143.93888431 64.93489054 -140 63 C-139.2575 62.5875 -138.515 62.175 -137.75 61.75 C-136 61 -136 61 -133 61 C-133 60.34 -133 59.68 -133 59 C-129.9238458 57.31982281 -126.83800131 55.65828808 -123.75 54 C-122.87730469 53.52304688 -122.00460938 53.04609375 -121.10546875 52.5546875 C-119.83896484 51.87792969 -119.83896484 51.87792969 -118.546875 51.1875 C-117.77182617 50.76855469 -116.99677734 50.34960938 -116.19824219 49.91796875 C-114 49 -114 49 -110 49 C-109.67 48.01 -109.34 47.02 -109 46 C-106.96875 45.12109375 -106.96875 45.12109375 -104.5 44.4375 C-102.08504595 43.79615283 -102.08504595 43.79615283 -100 43 C-99.67 42.34 -99.34 41.68 -99 41 C-98.34 41 -97.68 41 -97 41 C-97 40.01 -97 39.02 -97 38 C-96.34 38 -95.68 38 -95 38 C-94.9071875 37.40445313 -94.814375 36.80890625 -94.71875 36.1953125 C-93.83342903 33.49123431 -92.72039762 32.61309813 -90.5 30.875 C-87.8119616 28.80112319 -87.8119616 28.80112319 -86 26 C-85.34 26 -84.68 26 -84 26 C-83.67 25.01 -83.34 24.02 -83 23 C-80.7421875 21.68359375 -80.7421875 21.68359375 -77.875 20.4375 C-76.94429687 20.02371094 -76.01359375 19.60992187 -75.0546875 19.18359375 C-67.07992335 16.09362759 -60.10458543 15.598688 -51.5625 15.375 C-49.74975586 15.31699219 -49.74975586 15.31699219 -47.90039062 15.2578125 C-44.93374183 15.16400542 -41.96709164 15.07830754 -39 15 C-38.67 14.01 -38.34 13.02 -38 12 C-35 10 -35 10 -32 10 C-32 9.34 -32 8.68 -32 8 C-31.34 8 -30.68 8 -30 8 C-29.67 7.01 -29.34 6.02 -29 5 C-20.78204278 -0.5526738 -9.56274118 -0.36585685 0 0 Z M-30 35 C-34.22343994 38.15227764 -37.71745863 38.33689658 -42.8125 38.125 C-56.73457858 37.86741642 -65.58467737 40.78686632 -76.1875 49.875 C-78.20059935 52.08786337 -78.20059935 52.08786337 -79.875 55.4375 C-82.710927 60.46482514 -85.59246404 63.20258009 -91.078125 65.01953125 C-93.48651533 65.68528673 -95.89953292 66.3344806 -98.31640625 66.96875 C-106.07354349 69.14041939 -112.78073741 71.86011357 -119 77 C-120.0725 77.5775 -121.145 78.155 -122.25 78.75 C-127.04696712 81.39733285 -131.22611021 85.04640117 -135 89 C-135 89.66 -135 90.32 -135 91 C-136.485 91.495 -136.485 91.495 -138 92 C-140.43562084 95.38712874 -141.61054426 98.58870768 -142.5625 102.625 C-142.81515625 103.67429687 -143.0678125 104.72359375 -143.328125 105.8046875 C-143.95427664 108.7825482 -144.39295219 111.73764675 -144.8125 114.75 C-145.8349389 120.3532872 -147.72841969 124.17677259 -152 128 C-154.0106984 129.23921385 -156.05546798 130.42425739 -158.125 131.5625 C-163.84617011 134.67794288 -163.84617011 134.67794288 -167.40234375 139.8984375 C-168.47936388 143.68560631 -169.08215617 147.52783611 -169.60546875 151.42578125 C-170 154 -170 154 -171 156 C-171.05156991 157.54136717 -171.09158491 159.08313241 -171.125 160.625 C-171.67358999 166.73912397 -174.473871 170.04679872 -179 174 C-180.64418383 175.03655068 -182.30330285 176.05184571 -184 177 C-184.33 177.99 -184.66 178.98 -185 180 C-185.75023437 180.28230469 -186.50046875 180.56460938 -187.2734375 180.85546875 C-190.80333509 182.33721659 -192.26852118 184.32033875 -194.625 187.3125 C-195.38039062 188.25738281 -196.13578125 189.20226562 -196.9140625 190.17578125 C-205.79660144 202.20214015 -209.12900809 215.87139771 -209.64379883 230.5715332 C-209.86847596 236.16908237 -210.13347749 242.0416908 -213 247 C-214.3190414 247.69451567 -215.65381554 248.35968005 -217 249 C-222.84237158 255.37089909 -226.02864844 263.86923399 -225.98828125 272.5078125 C-225.74908464 276.05977701 -225.74908464 276.05977701 -224 279 C-223.98525034 280.89680593 -224.06410417 282.79465459 -224.1875 284.6875 C-224.24292969 285.72261719 -224.29835938 286.75773437 -224.35546875 287.82421875 C-225 291 -225 291 -227.015625 293.5703125 C-230.08446592 298.87433282 -229.55923264 304.16576248 -229.5625 310.1875 C-229.59311146 318.11586896 -230.02372669 325.04477549 -232.34790039 332.64819336 C-234.12672652 339.06355545 -232.84232458 345.86773022 -229.9375 351.75 C-229.298125 352.8225 -228.65875 353.895 -228 355 C-227.34 355 -226.68 355 -226 355 C-225.9175 355.70125 -225.835 356.4025 -225.75 357.125 C-223.30958636 366.47991896 -215.011545 370.7354633 -207.35546875 375.72265625 C-204.96770587 377.22472678 -204.96770587 377.22472678 -201.75 377.25 C-196.35075061 378.32984988 -192.93645926 381.24176626 -189 385 C-188.0409375 386.485 -188.0409375 386.485 -187.0625 388 C-183.98803812 392.47194456 -179.70390158 395.34571163 -175 398 C-174.01 398 -173.02 398 -172 398 C-171.505 399.485 -171.505 399.485 -171 401 C-168.68647564 401.98414156 -168.68647564 401.98414156 -165.8203125 402.60546875 C-164.74523437 402.86650391 -163.67015625 403.12753906 -162.5625 403.39648438 C-161.428125 403.65751953 -160.29375 403.91855469 -159.125 404.1875 C-158.02929688 404.46013672 -156.93359375 404.73277344 -155.8046875 405.01367188 C-145.3678741 407.48066746 -136.3555213 407.67680456 -126 405 C-124.33426175 404.66205775 -122.66768269 404.32821232 -121 404 C-120.92483154 402.45675049 -120.92483154 402.45675049 -120.84814453 400.88232422 C-120.65906191 397.04641326 -120.45885457 393.21114832 -120.25537109 389.37597656 C-120.16902504 387.71955534 -120.08565154 386.06297628 -120.00537109 384.40625 C-119.88910379 382.01774639 -119.76197358 379.63002443 -119.6328125 377.2421875 C-119.58267502 376.14026566 -119.58267502 376.14026566 -119.53152466 375.01608276 C-119.28479254 370.68472261 -118.50137761 367.05839436 -117 363 C-116.69354188 361.67806298 -116.41695562 360.34849708 -116.18359375 359.01171875 C-116.05960205 358.30909912 -115.93561035 357.60647949 -115.80786133 356.88256836 C-115.68564209 356.1581958 -115.56342285 355.43382324 -115.4375 354.6875 C-115.30819092 353.93927979 -115.17888184 353.19105957 -115.0456543 352.42016602 C-114.17544693 347.29301335 -113.47098146 342.18079607 -113 337 C-112.34 337 -111.68 337 -111 337 C-110.63648438 335.69675781 -110.63648438 335.69675781 -110.265625 334.3671875 C-108.48238067 328.23557046 -106.82633013 323.18406018 -103 318 C-102.4121875 316.39125 -102.4121875 316.39125 -101.8125 314.75 C-99.96121525 310.04815749 -96.31149982 306.72792565 -92.86328125 303.13671875 C-90.78092148 301.22127627 -90.78092148 301.22127627 -91 299 C-90.01 298.67 -89.02 298.34 -88 298 C-87.071875 296.824375 -87.071875 296.824375 -86.125 295.625 C-83.88363107 292.85625015 -82.05077718 291.77370766 -79 290 C-78.566875 289.54625 -78.13375 289.0925 -77.6875 288.625 C-71.833802 282.52739792 -63.97065046 281.51308442 -56 280 C-55.31437988 279.8649707 -54.62875977 279.72994141 -53.92236328 279.59082031 C-28.81086681 274.80373814 -2.62955462 273.72313777 22.875 273.6875 C23.67394684 273.68400543 24.47289368 273.68051086 25.29605103 273.6769104 C44.5403491 273.62986685 62.70206468 274.29388276 77.52734375 288.30078125 C79.54808821 290.63240947 80.72951071 293.20492356 82 296 C82.66 296.474375 83.32 296.94875 84 297.4375 C86.90956712 299.71059931 87.72007208 302.6520404 89 306 C89.80980201 307.91780814 90.62255115 309.83437328 91.4375 311.75 C92.31501758 313.82360589 93.16498591 315.90891656 94 318 C94.31066406 318.75071777 94.62132812 319.50143555 94.94140625 320.27490234 C98.11558618 328.36330645 99.63876571 336.61007516 101.125 345.125 C101.50323364 347.24145755 101.88424282 349.35739252 102.26657104 351.47311401 C102.61094931 353.38634894 102.94852827 355.30080418 103.28564453 357.21533203 C103.807138 359.97821371 104.4048724 362.65477392 105.07324219 365.38012695 C106.13365941 370.09631014 106.25696872 374.59221927 106.1953125 379.41015625 C106.19106766 380.68952309 106.19106766 380.68952309 106.18673706 381.99473572 C106.17565831 384.68414118 106.15057793 387.37319742 106.125 390.0625 C106.11495425 391.90038577 106.10583121 393.73827683 106.09765625 395.57617188 C106.07575951 400.05091313 106.04131673 404.52539763 106 409 C108.84022246 409.35734269 111.68109507 409.70327146 114.5234375 410.04296875 C115.31806396 410.14411987 116.11269043 410.245271 116.93139648 410.3494873 C127.13760645 411.54760761 136.55168493 410.051909 146 406 C147.91271202 405.28105635 149.82965747 404.57330637 151.75 403.875 C153.10351562 403.37613281 153.10351562 403.37613281 154.484375 402.8671875 C156.64653741 402.1218458 158.77260293 401.51001148 161 401 C161 400.01 161 399.02 161 398 C161.88171875 397.59974609 161.88171875 397.59974609 162.78125 397.19140625 C170.63072808 392.97645763 174.02005708 385.81048576 176.77734375 377.71875 C177.65886271 375.47636075 178.41349444 373.81955158 180 372 C182.47866958 371.05616497 184.77077072 370.68480409 187.3984375 370.34375 C192.43117887 369.67876315 196.6976604 368.33753796 200.3125 364.625 C200.869375 363.75875 201.42625 362.8925 202 362 C202.515625 361.2575 203.03125 360.515 203.5625 359.75 C207.44372479 352.32504823 208.45187935 345.81479083 207.9375 337.5 C207.89592773 336.17162109 207.89592773 336.17162109 207.85351562 334.81640625 C207.56405493 329.26365315 206.46987867 325.00361219 203.92749023 320.05126953 C201.08236483 313.75889163 202.05723834 308.39968548 204 302 C204.56505047 295.6472192 204.56505047 295.6472192 202 290 C200.57260417 282.65201453 201.0728409 275.37448086 202 268 C201.030625 267.38125 200.06125 266.7625 199.0625 266.125 C196 264 196 264 195 262 C194.34 262 193.68 262 193 262 C190.91305407 254.17395275 191.61090429 246.9195602 194.44140625 239.421875 C195.15755083 236.31691246 194.67645078 234.10138836 194 231 C193.71382813 229.58460938 193.71382813 229.58460938 193.421875 228.140625 C190.49565085 215.55105598 185.09390451 204.39593634 174 197 C173.6628418 194.54492188 173.6628418 194.54492188 173.69921875 191.46875 C173.69083984 190.34726563 173.68246094 189.22578125 173.67382812 188.0703125 C173.68282333 185.721279 173.70333909 183.37225657 173.73632812 181.0234375 C173.65029457 173.07212577 172.34761783 167.12288619 167 161 C166.01 160.67 165.02 160.34 164 160 C155.38294789 152.31452109 152.15580312 145.66852342 150.65625 134.421875 C149.63622193 128.02708366 147.72020613 123.54194099 143 119 C140.23805544 117.03154228 137.36707537 115.52521728 134.3125 114.0625 C133.17458008 113.48532227 133.17458008 113.48532227 132.01367188 112.89648438 C129.02782316 111.39697165 126.1749703 110.05832343 123 109 C122.896875 108.278125 122.79375 107.55625 122.6875 106.8125 C121.93294291 103.72567554 120.64758577 101.70204067 119 99 C118.566875 97.5459375 118.566875 97.5459375 118.125 96.0625 C116.75832964 92.34211957 115.01268084 89.5547208 112 87 C109.13331785 85.77117223 106.2472414 85.18411452 103.1875 84.625 C102.00510742 84.37943359 102.00510742 84.37943359 100.79882812 84.12890625 C98.87011887 83.73147525 96.93552654 83.36277785 95 83 C95 82.34 95 81.68 95 81 C94.236875 80.7525 93.47375 80.505 92.6875 80.25 C89.73819971 78.87823242 88.82568981 77.6081283 87 75 C86.34 75 85.68 75 85 75 C84.87625 74.29875 84.7525 73.5975 84.625 72.875 C83.80309501 69.09423704 82.73352329 65.46704658 81 62 C80.34 62 79.68 62 79 62 C78.855625 61.38125 78.71125 60.7625 78.5625 60.125 C78.06847775 57.96741678 78.06847775 57.96741678 77 56 C74.56219926 55.46766773 74.56219926 55.46766773 71.609375 55.21875 C70.50722656 55.09886719 69.40507812 54.97898437 68.26953125 54.85546875 C67.10808594 54.73816406 65.94664062 54.62085937 64.75 54.5 C62.4732801 54.26694993 60.19719545 54.02758854 57.921875 53.78125 C56.39965332 53.6275293 56.39965332 53.6275293 54.84667969 53.47070312 C51.94266401 52.9905194 49.62491104 52.33032382 47 51 C45.94773272 49.02699884 44.95211112 47.02323613 44 45 C41.87685203 42.54088679 41.87685203 42.54088679 39 40 C38.26394531 39.29488281 37.52789062 38.58976562 36.76953125 37.86328125 C25.6883305 27.46928675 15.03201788 22.80716712 -0.1875 22.625 C-0.93572021 22.61106201 -1.68394043 22.59712402 -2.45483398 22.58276367 C-13.45430159 22.67619544 -21.70137081 28.27138174 -30 35 Z " fill="#020202" transform="translate(279,42)"/>
<path d="M0 0 C2.46484375 1.828125 2.46484375 1.828125 4.9375 4.25 C5.81535156 5.06855469 6.69320313 5.88710937 7.59765625 6.73046875 C8.78681641 7.85388672 8.78681641 7.85388672 10 9 C14.85685347 13.32893461 18.78743633 13.55474803 25.0859375 13.3203125 C29.1058405 12.87844649 31.54597473 12.13120708 35 10 C36.80796103 7.43389334 36.80796103 7.43389334 38 5 C38.66 5 39.32 5 40 5 C40.144375 4.360625 40.28875 3.72125 40.4375 3.0625 C41 1 41 1 42 0 C46.93239162 -0.24661958 50.49862174 -0.25068913 55 2 C55.72087364 8.6320375 53.67773438 13.48339843 50 19 C47.125 21.3125 47.125 21.3125 44 23 C42.2509654 24.26039078 40.53073211 25.55479645 38.80859375 26.8515625 C31.47304629 31.50955592 22.45446421 30.87628804 14.1875 29.25 C2.49856806 24.66610512 2.49856806 24.66610512 -1 21 C-1.804375 20.566875 -2.60875 20.13375 -3.4375 19.6875 C-6.78515831 17.48294453 -8.20363317 15.59273366 -10 12 C-10.57729411 8.87299024 -10.70772211 6.11153685 -10 3 C-6.87571429 0.0542449 -4.19571152 -0.51668258 0 0 Z " fill="#0A0A0A" transform="translate(255,228)"/>
<path d="M0 0 C2.61838609 3.92757913 2.36792655 7.43771074 2 12 C-1.28491373 14.18994248 -2.83095639 14.35277339 -6.6875 14.625 C-7.68136719 14.69976562 -8.67523438 14.77453125 -9.69921875 14.8515625 C-10.45847656 14.90054688 -11.21773437 14.94953125 -12 15 C-12 15.66 -12 16.32 -12 17 C-15.3 17.66 -18.6 18.32 -22 19 C-22 19.66 -22 20.32 -22 21 C-22.763125 21.103125 -23.52625 21.20625 -24.3125 21.3125 C-27.33024646 22.08448165 -27.93883925 22.77394639 -30 25 C-30.93199219 25.51433594 -31.86398438 26.02867187 -32.82421875 26.55859375 C-37.00363715 29.29926833 -38.46971303 33.2796185 -40.375 37.75 C-40.72949219 38.54277344 -41.08398438 39.33554688 -41.44921875 40.15234375 C-42.3150806 42.09468249 -43.15972089 44.0464577 -44 46 C-44.66 46 -45.32 46 -46 46 C-46 46.99 -46 47.98 -46 49 C-50.22857143 53 -50.22857143 53 -54 53 C-55.04892238 51.36368108 -56.04906703 49.69514137 -57 48 C-57.66 47.67 -58.32 47.34 -59 47 C-59.22991927 42.28665497 -58.57210668 38.45430227 -57 34 C-56.01 33.505 -56.01 33.505 -55 33 C-54.34786708 30.97536745 -54.34786708 30.97536745 -54 29 C-53.34 29 -52.68 29 -52 29 C-51.938125 28.278125 -51.87625 27.55625 -51.8125 26.8125 C-50.74238798 23.1082661 -48.80096168 21.60554575 -46 19 C-44.65705519 17.34106818 -43.32255312 15.67523395 -42 14 C-39.5554595 11.09338173 -37.20711579 10.1776819 -33.625 9 C-30.61024951 8.00338827 -28.09823067 7.0613573 -25.3984375 5.375 C-23 4 -23 4 -19 4 C-19 3.34 -19 2.68 -19 2 C-12.6221448 0.82706111 -6.49678438 -0.29530838 0 0 Z " fill="#E5E5E5" transform="translate(207,123)"/>
<path d="M0 0 C5.67177385 -0.45374191 8.5975268 0.34916857 13 4 C13 4.66 13 5.32 13 6 C13.86625 6.185625 13.86625 6.185625 14.75 6.375 C17.02335767 7.00648824 18.9253529 7.88858191 21 9 C21 9.66 21 10.32 21 11 C21.66 11 22.32 11 23 11 C23 11.66 23 12.32 23 13 C23.78375 12.95875 24.5675 12.9175 25.375 12.875 C28 13 28 13 30 15 C33.55217104 16.47285141 36.7021878 17.08194142 40.5 17.3125 C45.46944185 17.8010214 47.76790686 19.17252128 51 23 C51 26.9785232 50.21158314 28.68262528 48 32 C37.2854303 33.65874092 26.48514716 31.03756619 17 26 C17 25.34 17 24.68 17 24 C16.4121875 23.89429688 15.824375 23.78859375 15.21875 23.6796875 C12.69126204 22.90542182 11.44090558 21.89828191 9.5 20.125 C7.55581921 18.3773278 5.69068134 16.77792506 3.5625 15.25 C3.046875 14.8375 2.53125 14.425 2 14 C2 13.34 2 12.68 2 12 C1.34 12 0.68 12 0 12 C-0.19477739 10.37585622 -0.38059458 8.75063577 -0.5625 7.125 C-0.66691406 6.22007812 -0.77132812 5.31515625 -0.87890625 4.3828125 C-1 2 -1 2 0 0 Z " fill="#E6E6E6" transform="translate(100,408)"/>
<path d="M0 0 C14.93324232 -0.43494881 14.93324232 -0.43494881 19.6875 3.33984375 C23.09757066 6.69465864 24.41165492 9.31232371 24.5625 14.125 C24.31492277 18.08623565 23.66860317 20.92084249 21 24 C20.34 24 19.68 24 19 24 C18.773125 24.639375 18.54625 25.27875 18.3125 25.9375 C17 28 17 28 14.76171875 28.61328125 C8.99813065 29.42034663 3.25943259 29.9303546 -2.1875 27.6875 C-2.785625 27.130625 -3.38375 26.57375 -4 26 C-4 25.01 -4 24.02 -4 23 C-4.99 22.67 -5.98 22.34 -7 22 C-8.2866645 19.426671 -8.16824551 17.49776962 -8.1875 14.625 C-8.20167969 13.66851562 -8.21585938 12.71203125 -8.23046875 11.7265625 C-7.99384058 8.92713088 -7.55561822 7.3228449 -6 5 C-4.34183216 4.31246699 -2.67540664 3.64438717 -1 3 C-0.67 2.01 -0.34 1.02 0 0 Z " fill="#0A0A0A" transform="translate(200,217)"/>
<path d="M0 0 C2.6875 0.375 2.6875 0.375 4.8125 2.3125 C8.75020755 8.74408901 10.03919522 15.66375065 11.375 23 C11.57234741 24.07459473 11.57234741 24.07459473 11.77368164 25.17089844 C12.53923505 29.63757054 12.81236944 33.84402332 12.6875 38.375 C13.3475 38.375 14.0075 38.375 14.6875 38.375 C16.10606061 64.01041667 16.10606061 64.01041667 15.6875 70.375 C14.6875 71.375 14.6875 71.375 11.625 71.4375 C10.655625 71.416875 9.68625 71.39625 8.6875 71.375 C8.39875 70.570625 8.11 69.76625 7.8125 68.9375 C6.95487432 66.2423532 6.95487432 66.2423532 4.6875 65.375 C4.37890625 62.91796875 4.37890625 62.91796875 4.25 59.5625 C3.33409928 43.7672297 1.12012987 26.84530193 -3.421875 11.66796875 C-4.45409779 7.85146082 -4.15605708 5.20935037 -3.3125 1.375 C-2.3125 0.375 -2.3125 0.375 0 0 Z " fill="#EEEEEE" transform="translate(356.3125,373.625)"/>
<path d="M0 0 C1.36125 0.37125 1.36125 0.37125 2.75 0.75 C3.245 3.225 3.245 3.225 3.75 5.75 C4.74 6.08 5.73 6.41 6.75 6.75 C6.42 9.06 6.09 11.37 5.75 13.75 C4.76 14.08 3.77 14.41 2.75 14.75 C2.564375 15.86375 2.564375 15.86375 2.375 17 C1.77877475 19.6233911 1.25802614 21.52764568 -0.25 23.75 C-2.375 24.5 -2.375 24.5 -4.25 24.75 C-4.25 25.41 -4.25 26.07 -4.25 26.75 C-8.60294118 30.75 -8.60294118 30.75 -12.25 30.75 C-12.25 31.41 -12.25 32.07 -12.25 32.75 C-13.66328129 33.56837442 -15.08078346 34.37946219 -16.5 35.1875 C-17.68335938 35.86619141 -17.68335938 35.86619141 -18.890625 36.55859375 C-22.92868787 38.59768179 -26.37072257 38.90714773 -30.875 38.9375 C-31.83664062 38.95167969 -32.79828125 38.96585937 -33.7890625 38.98046875 C-36.25 38.75 -36.25 38.75 -38.25 36.75 C-38.4453125 34.5859375 -38.4453125 34.5859375 -38.375 32.125 C-38.35695313 31.30773437 -38.33890625 30.49046875 -38.3203125 29.6484375 C-38.29710937 29.02195312 -38.27390625 28.39546875 -38.25 27.75 C-36.31532058 26.91013916 -34.37714871 26.07831973 -32.4375 25.25 C-31.35855469 24.7859375 -30.27960938 24.321875 -29.16796875 23.84375 C-26.25 22.75 -26.25 22.75 -23.25 22.75 C-22.92 21.76 -22.59 20.77 -22.25 19.75 C-20.826875 19.62625 -20.826875 19.62625 -19.375 19.5 C-18.34375 19.2525 -17.3125 19.005 -16.25 18.75 C-15.00825204 16.8498823 -15.00825204 16.8498823 -14.25 14.75 C-13.26 14.09 -12.27 13.43 -11.25 12.75 C-10.16891713 10.7045557 -10.16891713 10.7045557 -9.3125 8.375 C-5.55037538 -0.42695195 -5.55037538 -0.42695195 0 0 Z " fill="#E6E6E6" transform="translate(443.25,404.25)"/>
<path d="M0 0 C0.9384375 -0.01675781 1.876875 -0.03351563 2.84375 -0.05078125 C5.91069925 0.36866916 7.29265591 1.17283392 9.5 3.3125 C9.5 3.9725 9.5 4.6325 9.5 5.3125 C10.139375 5.580625 10.77875 5.84875 11.4375 6.125 C13.5 7.3125 13.5 7.3125 14.5 10.3125 C15.2774556 15.85310127 15.14948131 20.13589092 11.875 24.8125 C9.00327998 28.11064712 6.95108215 29.72462123 2.5 30.3125 C-2.50797837 30.62790263 -6.66601487 30.47277631 -10.98828125 27.73828125 C-13.7923946 25.20312371 -16.03126233 22.94074663 -17.09375 19.25 C-17.36430116 13.47824187 -15.212843 8.356861 -11.5625 4 C-7.77158191 0.89833975 -4.90674198 0.02022009 0 0 Z " fill="#0A0A0A" transform="translate(348.5,215.6875)"/>
<path d="M0 0 C3.22668758 0.1839317 4.39085293 0.44527761 7.125 2.3125 C11.04359973 11.17194286 8.44094456 22.66656639 5.5625 31.5625 C4.08203125 33.46484375 4.08203125 33.46484375 2.5625 34.5625 C1.9025 34.5625 1.2425 34.5625 0.5625 34.5625 C0.5625 35.2225 0.5625 35.8825 0.5625 36.5625 C-0.0975 36.5625 -0.7575 36.5625 -1.4375 36.5625 C-1.4375 37.2225 -1.4375 37.8825 -1.4375 38.5625 C-4.14629335 39.91689668 -6.44683268 39.62751451 -9.4375 39.5625 C-13.01350726 33.45406736 -13.97327817 29.43466881 -13.3125 22.4375 C-13.26351563 21.66535156 -13.21453125 20.89320313 -13.1640625 20.09765625 C-12.71962948 14.16851568 -12.10132235 8.66666367 -7.4375 4.5625 C-6.880625 3.4796875 -6.880625 3.4796875 -6.3125 2.375 C-4.03859612 0.17689292 -3.09833415 0.17241139 0 0 Z " fill="#EF8EAA" transform="translate(400.4375,257.4375)"/>
<path d="M0 0 C4.0461955 1.20676006 6.52116683 2.09534569 9.5625 5.0625 C10.26059039 8.17529648 10.15616491 10.93702885 9.5625 14.0625 C8.25 16.125 8.25 16.125 6.5625 18.0625 C6.02291388 19.33813694 5.52694618 20.63262739 5.0625 21.9375 C4.80855469 22.63488281 4.55460937 23.33226562 4.29296875 24.05078125 C3.93138672 25.04658203 3.93138672 25.04658203 3.5625 26.0625 C1.34564094 31.77966285 -2.20446611 35.87467018 -7.4375 39.0625 C-11.46971256 39.26080554 -13.32523787 39.03124444 -16.375 36.375 C-17.72657329 33.43334049 -17.71608381 31.26621381 -17.4375 28.0625 C-17.1075 27.4025 -16.7775 26.7425 -16.4375 26.0625 C-15.7775 26.0625 -15.1175 26.0625 -14.4375 26.0625 C-14.52 25.258125 -14.6025 24.45375 -14.6875 23.625 C-14.4013236 19.54698629 -13.19468545 16.87533111 -11.44140625 13.234375 C-10.31148878 10.93392603 -10.31148878 10.93392603 -9.5 7.8125 C-7.6031744 2.90306904 -5.43017543 0.09873046 0 0 Z " fill="#EF91AB" transform="translate(157.4375,251.9375)"/>
<path d="M0 0 C3.28544892 1.21042855 5.03876296 2.20252591 6.625 5.375 C8.55103685 14.36317196 5.85190218 25.14233205 3.375 33.875 C1.8984375 35.81640625 1.8984375 35.81640625 0.375 36.875 C-0.285 36.875 -0.945 36.875 -1.625 36.875 C-1.955 37.865 -2.285 38.855 -2.625 39.875 C-5.3125 40.6875 -5.3125 40.6875 -8.625 40.875 C-11.375 38.5625 -11.375 38.5625 -13.625 35.875 C-14.285 35.215 -14.945 34.555 -15.625 33.875 C-15.53519965 23.21120847 -14.03523101 12.70172893 -7.625 3.875 C-3.23753323 -0.15416825 -3.23753323 -0.15416825 0 0 Z " fill="#EF91AB" transform="translate(371.625,255.125)"/>
<path d="M0 0 C4.53883242 0.69236427 7.69771613 1.99605159 10.6875 5.5625 C11.16878098 9.11194721 11.29777254 11.34195493 9.6875 14.5625 C9.0275 14.5625 8.3675 14.5625 7.6875 14.5625 C7.56375 15.8 7.56375 15.8 7.4375 17.0625 C6.65646407 20.70733432 5.3970438 23.40332525 3.66796875 26.66796875 C2.58056001 28.68838646 2.58056001 28.68838646 1.5625 31.4375 C0.6875 33.5625 0.6875 33.5625 -1.3125 35.5625 C-3.84375 35.828125 -3.84375 35.828125 -6.8125 35.8125 C-7.7921875 35.81765625 -8.771875 35.8228125 -9.78125 35.828125 C-12.3125 35.5625 -12.3125 35.5625 -14.3125 33.5625 C-14.45757695 30.81764407 -14.49902423 28.17769457 -14.4375 25.4375 C-14.42396484 24.30634766 -14.42396484 24.30634766 -14.41015625 23.15234375 C-14.3865687 21.28892746 -14.35069719 19.42567407 -14.3125 17.5625 C-13.6525 17.5625 -12.9925 17.5625 -12.3125 17.5625 C-12.23 16.53125 -12.1475 15.5 -12.0625 14.4375 C-11.23597147 10.16710261 -9.9634275 7.97083536 -7.3125 4.5625 C-6.714375 3.77875 -6.11625 2.995 -5.5 2.1875 C-3.3125 0.5625 -3.3125 0.5625 0 0 Z " fill="#EF91AB" transform="translate(187.3125,257.4375)"/>
<path d="M0 0 C4.15467129 -0.19324053 7.3382625 -0.09242143 11 2 C11.8125 4.125 11.8125 4.125 12 6 C16.61172908 6.79735503 21.2350704 7.45553247 25.875 8.0625 C26.56335938 8.15337891 27.25171875 8.24425781 27.9609375 8.33789062 C29.64050563 8.55950031 31.32023621 8.77987828 33 9 C34.1484375 15.640625 34.1484375 15.640625 32.8125 18.875 C30.07214104 22.08783465 27.7563071 21.93900749 23.609375 22.2734375 C16.60717101 22.45770603 11.11173458 22.56520855 5.22265625 18.2890625 C4 17 4 17 4 15 C3.360625 14.731875 2.72125 14.46375 2.0625 14.1875 C0 13 0 13 -1 10 C-1.13156527 6.31617231 -1.16982138 3.50946415 0 0 Z " fill="#E5E5E5" transform="translate(63,388)"/>
<path d="M0 0 C2.14465697 2.06806208 2.90161607 3.52037835 3.5 6.4375 C2.75843328 10.23802945 1.00623769 11.64729225 -2 14 C-5.3125 14.8125 -5.3125 14.8125 -8 15 C-8 15.66 -8 16.32 -8 17 C-8.5775 17.2475 -9.155 17.495 -9.75 17.75 C-12.1405774 18.90748888 -12.1405774 18.90748888 -13.875 21.1875 C-16 23 -16 23 -19.0625 22.875 C-22 22 -22 22 -25 20 C-25.71813145 15.83483759 -25.8636307 13.47340631 -23.7109375 9.80078125 C-17.46313669 2.08374874 -9.73294029 0 0 0 Z " fill="#E5E5E5" transform="translate(239,105)"/>
<path d="M0 0 C1.31291016 0.04253906 1.31291016 0.04253906 2.65234375 0.0859375 C3.53019531 0.09882813 4.40804688 0.11171875 5.3125 0.125 C7.58984375 0.4609375 7.58984375 0.4609375 9.58984375 2.4609375 C10.01913761 7.69832257 10.13202414 11.26279778 6.58984375 15.4609375 C5.59984375 15.4609375 4.60984375 15.4609375 3.58984375 15.4609375 C3.25984375 16.4509375 2.92984375 17.4409375 2.58984375 18.4609375 C-0.38041939 20.44111293 -2.94524551 20.78273372 -6.47265625 20.8359375 C-7.32988281 20.86429687 -8.18710937 20.89265625 -9.0703125 20.921875 C-11.41015625 20.4609375 -11.41015625 20.4609375 -13.21875 18.69140625 C-14.87661112 15.58767282 -14.6246908 13.68087736 -14.05859375 10.296875 C-13.41015625 8.4609375 -13.41015625 8.4609375 -11.03515625 6.5234375 C-9.18398028 5.77415199 -7.30474146 5.0924659 -5.41015625 4.4609375 C-4.95769531 3.78804688 -4.50523437 3.11515625 -4.0390625 2.421875 C-2.41015625 0.4609375 -2.41015625 0.4609375 0 0 Z " fill="#E6E6E6" transform="translate(463.41015625,383.5390625)"/>
<path d="M0 0 C2.625 0.4375 2.625 0.4375 4.75 2.5 C8.07702294 7.71233594 10.22279199 12.16068413 9.625 18.4375 C8.625 19.4375 8.625 19.4375 4.8125 19.875 C2.62890625 19.8515625 2.62890625 19.8515625 0.625 19.4375 C-1.75 16.75 -1.75 16.75 -3.375 13.4375 C-3.808125 12.6125 -4.24125 11.7875 -4.6875 10.9375 C-5.56188541 7.7579167 -5.21931281 5.60367303 -4.375 2.4375 C-2.375 0.4375 -2.375 0.4375 0 0 Z " fill="#E9E9E9" transform="translate(348.375,347.5625)"/>
<path d="M0 0 C2.69374642 0.25654728 4.31699635 0.88229413 6.625 2.25 C6.8125 5.625 6.8125 5.625 6.625 9.25 C3.625 11.25 3.625 11.25 0 10.9375 C-3.375 10.25 -3.375 10.25 -4.375 9.25 C-4.5625 5.8125 -4.5625 5.8125 -4.375 2.25 C-2.375 0.25 -2.375 0.25 0 0 Z " fill="#DCDCDC" transform="translate(352.375,221.75)"/>
<path d="M0 0 C3 0.1875 3 0.1875 5 1.1875 C5.8125 4.0625 5.8125 4.0625 6 7.1875 C4.875 9.0625 4.875 9.0625 3 10.1875 C0.11065736 10.6209014 -1.35092224 10.61275784 -3.8125 9 C-5.40199375 6.5739306 -5.36487512 5.03352594 -5 2.1875 C-3 0.1875 -3 0.1875 0 0 Z " fill="#E2E2E2" transform="translate(212,220.8125)"/>
<path d="M0 0 C-0.33 0.66 -0.66 1.32 -1 2 C-2.90734886 2.29689864 -4.82781785 2.51045691 -6.75 2.6875 C-13.70178151 3.61696471 -18.48808944 6.02559108 -24.41796875 9.5390625 C-27 11 -27 11 -29 11 C-29.226875 11.5775 -29.45375 12.155 -29.6875 12.75 C-31.32741284 15.56127916 -33.47216681 16.97773345 -36 19 C-36.68177416 20.32567199 -37.35191436 21.65753688 -38 23 C-38.99 23.33 -39.98 23.66 -41 24 C-41 23.34 -41 22.68 -41 22 C-40.34 22 -39.68 22 -39 22 C-38.9071875 21.40445313 -38.814375 20.80890625 -38.71875 20.1953125 C-37.83342903 17.49123431 -36.72039762 16.61309813 -34.5 14.875 C-31.8119616 12.80112319 -31.8119616 12.80112319 -30 10 C-29.34 10 -28.68 10 -28 10 C-27.67 9.01 -27.34 8.02 -27 7 C-18.4384355 2.00822277 -9.84595192 -0.40187559 0 0 Z " fill="#DCDCDC" transform="translate(223,58)"/>
<path d="M0 0 C0 0.33 0 0.66 0 1 C-1.1446875 1.061875 -1.1446875 1.061875 -2.3125 1.125 C-5.29158127 1.76031275 -5.29158127 1.76031275 -6.625 4.875 C-7.07875 5.90625 -7.5325 6.9375 -8 8 C-8.98095748 9.01868662 -9.97702078 10.02351983 -11 11 C-11.33 11.99 -11.66 12.98 -12 14 C-12.66 14 -13.32 14 -14 14 C-14 15.32 -14 16.64 -14 18 C-14.66 18 -15.32 18 -16 18 C-16 22.62 -16 27.24 -16 32 C-16.33 32 -16.66 32 -17 32 C-17 26.72 -17 21.44 -17 16 C-16.34 16 -15.68 16 -15 16 C-14.9175 14.96875 -14.835 13.9375 -14.75 12.875 C-13.92838974 8.63001367 -12.62262874 6.39399014 -10 3 C-9.566875 2.38125 -9.13375 1.7625 -8.6875 1.125 C-5.93940904 -0.70706064 -3.19562441 -0.1808844 0 0 Z " fill="#EB9FB4" transform="translate(190,259)"/>
<path d="M0 0 C0.66 0 1.32 0 2 0 C1.67 0.99 1.34 1.98 1 3 C0.34 3 -0.32 3 -1 3 C-0.938125 3.763125 -0.87625 4.52625 -0.8125 5.3125 C-1 8 -1 8 -2.40625 9.34375 C-4.45561916 11.47348658 -4.91446914 13.3530535 -5.6875 16.1875 C-5.93886719 17.08855469 -6.19023437 17.98960937 -6.44921875 18.91796875 C-6.63097656 19.60503906 -6.81273437 20.29210937 -7 21 C-7.33 21 -7.66 21 -8 21 C-8.99457029 13.70648456 -5.62064299 8.18135681 -2 2 C-1.34 1.34 -0.68 0.68 0 0 Z " fill="#EAA3B7" transform="translate(366,257)"/>
<path d="M0 0 C2.90802461 2.21928194 4.95312762 3.92969143 7 7 C7.1953125 9.48046875 7.1953125 9.48046875 7.125 12.1875 C7.10695312 13.08855469 7.08890625 13.98960937 7.0703125 14.91796875 C7.03550781 15.94857422 7.03550781 15.94857422 7 17 C6.67 17 6.34 17 6 17 C5.67 14.03 5.34 11.06 5 8 C3.68 8.33 2.36 8.66 1 9 C0.67 6.03 0.34 3.06 0 0 Z " fill="#262626" transform="translate(217,219)"/>
<path d="M0 0 C0.66 0.33 1.32 0.66 2 1 C2.19818283 7.70518586 2.30844801 13.65176798 0 20 C-0.33 20 -0.66 20 -1 20 C-1.02725341 18.2709226 -1.04650987 16.54171824 -1.0625 14.8125 C-1.07410156 13.84957031 -1.08570313 12.88664062 -1.09765625 11.89453125 C-1.00460276 9.13642591 -0.55991908 6.69378393 0 4 C0 2.68 0 1.36 0 0 Z " fill="#EBA5B9" transform="translate(407,262)"/>
<path d="M0 0 C1.43088528 2.86177057 0.59991697 4.93375773 0 8 C-0.66 8 -1.32 8 -2 8 C-2.33 11.96 -2.66 15.92 -3 20 C-3.33 20 -3.66 20 -4 20 C-4.05451714 17.95863605 -4.09302485 15.91684144 -4.125 13.875 C-4.14820313 12.73804688 -4.17140625 11.60109375 -4.1953125 10.4296875 C-3.99488209 6.91012956 -3.37414189 4.23836237 -2 1 C-1.34 0.67 -0.68 0.34 0 0 Z " fill="#EDAEC0" transform="translate(392,264)"/>
<path d="M0 0 C3.3125 0.9375 3.3125 0.9375 5.3125 2.9375 C4.075 2.834375 2.8375 2.73125 1.5625 2.625 C-0.62903035 2.54320179 -0.62903035 2.54320179 -2.6875 2.9375 C-5.09156384 5.31592577 -5.09156384 5.31592577 -6.6875 7.9375 C-7.3475 7.9375 -8.0075 7.9375 -8.6875 7.9375 C-9.0175 8.5975 -9.3475 9.2575 -9.6875 9.9375 C-9.39223074 6.49269195 -8.64688703 4.88255304 -6.5625 2.0625 C-3.6875 -0.0625 -3.6875 -0.0625 0 0 Z " fill="#E7A1B5" transform="translate(157.6875,252.0625)"/>
<path d="M0 0 C0.33 0 0.66 0 1 0 C1.37369729 7.47394574 0.04061541 13.82140651 -2 21 C-2.66 21 -3.32 21 -4 21 C-3.52259783 18.24968307 -3.04314736 15.49975 -2.5625 12.75 C-2.42779297 11.97269531 -2.29308594 11.19539062 -2.15429688 10.39453125 C-2.02216797 9.64042969 -1.89003906 8.88632813 -1.75390625 8.109375 C-1.63345947 7.41811523 -1.5130127 6.72685547 -1.38891602 6.01464844 C-0.99755584 3.98733883 -0.51910249 1.99805485 0 0 Z " fill="#B3B3B3" transform="translate(137,143)"/>
<path d="M0 0 C0.66 0.33 1.32 0.66 2 1 C-2 5 -6 9 -10 13 C-10.66 13 -11.32 13 -12 13 C-11.67 12.01 -11.34 11.02 -11 10 C-10.34 10 -9.68 10 -9 10 C-8.74476563 9.40703125 -8.48953125 8.8140625 -8.2265625 8.203125 C-6.88183502 5.78775462 -5.50785633 4.48788294 -3.375 2.75 C-2.74335938 2.22921875 -2.11171875 1.7084375 -1.4609375 1.171875 C-0.73777344 0.59179688 -0.73777344 0.59179688 0 0 Z " fill="#CCCCCC" transform="translate(153,123)"/>
<path d="M0 0 C0.66 0 1.32 0 2 0 C0.59155282 3.21524305 -1.10344786 5.32183868 -3.625 7.75 C-4.57246094 8.67039062 -4.57246094 8.67039062 -5.5390625 9.609375 C-6.02117187 10.06828125 -6.50328125 10.5271875 -7 11 C-7.33 10.01 -7.66 9.02 -8 8 C-7.50628906 7.59007813 -7.01257813 7.18015625 -6.50390625 6.7578125 C-5.86324219 6.21898438 -5.22257813 5.68015625 -4.5625 5.125 C-3.92441406 4.59132813 -3.28632813 4.05765625 -2.62890625 3.5078125 C-0.89194996 2.0777243 -0.89194996 2.0777243 0 0 Z " fill="#202020" transform="translate(194,69)"/>
<path d="M0 0 C0.66 0.33 1.32 0.66 2 1 C-0.64 3.64 -3.28 6.28 -6 9 C-6.66 8.67 -7.32 8.34 -8 8 C-7.04578192 6.85073734 -6.08647955 5.70569459 -5.125 4.5625 C-4.59132813 3.92441406 -4.05765625 3.28632813 -3.5078125 2.62890625 C-2 1 -2 1 0 0 Z " fill="#CACACA" transform="translate(92,222)"/>
<path d="M0 0 C0.66 0 1.32 0 2 0 C0.70700306 2.88437779 -0.65941363 4.87219421 -3 7 C-3.66 6.67 -4.32 6.34 -5 6 C-3.38405168 3.95880212 -1.7143618 1.95927063 0 0 Z " fill="#353535" transform="translate(195,334)"/>
<path d="M0 0 C0.66 0 1.32 0 2 0 C2.1875 3.375 2.1875 3.375 2 7 C1.01 7.66 0.02 8.32 -1 9 C-0.67 6.03 -0.34 3.06 0 0 Z " fill="#E8A2B5" transform="translate(404,282)"/>
<path d="M0 0 C1.32 0 2.64 0 4 0 C3.67 1.32 3.34 2.64 3 4 C2.01 2.68 1.02 1.36 0 0 Z " fill="#FFFFFF" transform="translate(387,16)"/>
<path d="M0 0 C0.66 0 1.32 0 2 0 C1.67 1.32 1.34 2.64 1 4 C0.67 2.68 0.34 1.36 0 0 Z " fill="#FFFFFF" transform="translate(515,370)"/>
<path d="M0 0 C0.33 0.66 0.66 1.32 1 2 C0.34 1.67 -0.32 1.34 -1 1 C-0.67 0.67 -0.34 0.34 0 0 Z " fill="#FFFFFF" transform="translate(144,95)"/>
<path d="M0 0 C2 1 2 1 2 1 Z " fill="#FFFFFF" transform="translate(451,515)"/>
<path d="M0 0 C2 1 2 1 2 1 Z " fill="#FFFFFF" transform="translate(362,32)"/>
<path d="M0 0 C2 1 2 1 2 1 Z " fill="#FFFFFF" transform="translate(358,31)"/>
<path d="" fill="#7D7D7D" transform="translate(0,0)"/>
<path d="" fill="#FFFFFF" transform="translate(0,0)"/>
<path d="" fill="#FFFFFF" transform="translate(0,0)"/>
<path d="" fill="#FFFFFF" transform="translate(0,0)"/>
<path d="" fill="#FFFFFF" transform="translate(0,0)"/>
<path d="" fill="#FFFFFF" transform="translate(0,0)"/>
</svg>
