<?xml version="1.0" encoding="UTF-8"?>
<svg version="1.1" xmlns="http://www.w3.org/2000/svg" width="500" height="500">
<path d="M0 0 C165 0 330 0 500 0 C500 165 500 330 500 500 C335 500 170 500 0 500 C0 335 0 170 0 0 Z " fill="#FEFEFE" transform="translate(0,0)"/>
<path d="M0 0 C4.15932652 2.11605037 7.02931739 5.17449843 10.3203125 8.43359375 C14.03018805 11.36894158 17.69436492 11.93416273 22.26171875 12.8125 C27.1101881 14.03178963 29.05212193 17.21588877 31.71484375 21.1640625 C32.90234375 23.4765625 32.90234375 23.4765625 32.90234375 25.4765625 C33.45921875 25.49332031 34.01609375 25.51007813 34.58984375 25.52734375 C38.76411794 25.99977005 41.15268584 26.62918382 44 29.84765625 C45.32671582 31.79157187 46.63364413 33.74911957 47.921875 35.71875 C50.28851592 39.01430915 52.85249523 40.94676598 56.14453125 43.23828125 C59.65967198 45.71450261 61.58381127 47.88851653 62.44140625 52.1640625 C62.74196038 54.12021144 63.00184152 56.08317318 63.21484375 58.05078125 C63.64452583 60.62108409 63.64452583 60.62108409 65.83203125 61.63671875 C66.51523437 61.91386719 67.1984375 62.19101563 67.90234375 62.4765625 C72.94692552 69.00484479 74.17914574 74.44930468 73.90234375 82.4765625 C74.89234375 82.8065625 75.88234375 83.1365625 76.90234375 83.4765625 C81.89546635 91.04189977 83.15964285 97.59557936 82.6796875 106.609375 C82.94287368 109.99847425 84.11387378 111.63044404 85.90234375 114.4765625 C86.4140625 116.94921875 86.4140625 116.94921875 86.58984375 119.5390625 C86.656875 120.49167969 86.72390625 121.44429688 86.79296875 122.42578125 C86.94043781 126.53911467 86.88076946 130.6368874 86.7421875 134.75 C86.91722479 137.72990308 87.78353963 139.72884817 88.90234375 142.4765625 C89.85643651 150.32009252 89.12450162 157.68592526 84.90234375 164.4765625 C81.93295384 167.756278 78.80693085 170.58214314 74.78125 172.47265625 C71.87208022 174.02703594 70.68987685 176.76643167 68.90234375 179.4765625 C67.91234375 179.8065625 66.92234375 180.1365625 65.90234375 180.4765625 C65.90234375 181.1365625 65.90234375 181.7965625 65.90234375 182.4765625 C63.65477591 183.62738935 61.40452627 184.77233108 59.15234375 185.9140625 C58.518125 186.23955078 57.88390625 186.56503906 57.23046875 186.90039062 C52.42374626 189.32878688 48.85493865 190.65227786 43.48828125 190.43359375 C31.6159243 189.88429078 31.6159243 189.88429078 20.46630859 193.40966797 C10.79186444 197.4353127 -0.82156897 196.71386192 -11.09765625 196.5390625 C-18.58784806 196.43481756 -25.95922051 196.40882176 -33.42578125 197.07421875 C-39.21684938 197.53494596 -44.21321599 197.2003895 -49.84765625 195.8515625 C-51.06811646 195.58230957 -51.06811646 195.58230957 -52.31323242 195.30761719 C-56.71454547 194.27222163 -60.46705052 193.00018195 -64.41015625 190.7265625 C-69.46034423 187.81807727 -73.99734995 188.27411086 -79.69921875 188.484375 C-88.50702929 188.46412716 -97.5122654 184.61377949 -104.09765625 178.8515625 C-106.09765625 176.4765625 -106.09765625 176.4765625 -106.09765625 174.4765625 C-106.67773438 174.34378906 -107.2578125 174.21101562 -107.85546875 174.07421875 C-115.53502992 172.02722771 -120.01604726 168.24312372 -124.09765625 161.4765625 C-126.61420042 157.12169175 -127.46695674 154.12411311 -127.34765625 149.1015625 C-127.32058594 147.89242187 -127.29351562 146.68328125 -127.265625 145.4375 C-127.08588302 141.19893321 -126.90021511 136.96216099 -126.66015625 132.7265625 C-126.62116211 132.0351416 -126.58216797 131.3437207 -126.54199219 130.63134766 C-126.22016043 125.72157087 -126.22016043 125.72157087 -125.09765625 123.4765625 C-124.96836717 121.76994661 -124.86848727 120.06103886 -124.78515625 118.3515625 C-124.2749603 112.08931864 -122.59318106 106.97208731 -118.09765625 102.4765625 C-117.7828249 100.36019622 -117.54518771 98.23208035 -117.34765625 96.1015625 C-116.03635708 85.97541888 -111.82521546 76.50987211 -104.03515625 69.6640625 C-102.09765625 68.4765625 -102.09765625 68.4765625 -99.09765625 68.4765625 C-99.20078125 67.1771875 -99.30390625 65.8778125 -99.41015625 64.5390625 C-99.41893268 58.98358145 -97.43852096 54.85485362 -94.09765625 50.4765625 C-90.60432292 47.4765625 -90.60432292 47.4765625 -88.09765625 47.4765625 C-88.05640625 46.3628125 -88.01515625 45.2490625 -87.97265625 44.1015625 C-86.97368358 36.4742712 -82.64813996 30.39668227 -76.78515625 25.6015625 C-71.34437789 21.72053511 -65.04740764 17.57982038 -58.09765625 18.4765625 C-57.83984375 17.89003906 -57.58203125 17.30351562 -57.31640625 16.69921875 C-54.2458872 11.09945805 -49.05253411 7.46649029 -43.03515625 5.6015625 C-40.10028804 4.8509913 -37.36919523 4.39157538 -34.34765625 4.0390625 C-30.43907392 3.3625771 -28.29561997 1.77075387 -25.09765625 -0.5234375 C-16.87962576 -4.36757408 -8.31633452 -2.97547104 0 0 Z " fill="#FDFCFC" transform="translate(269.09765625,152.5234375)"/>
<path d="M0 0 C4.15932652 2.11605037 7.02931739 5.17449843 10.3203125 8.43359375 C14.03018805 11.36894158 17.69436492 11.93416273 22.26171875 12.8125 C27.1101881 14.03178963 29.05212193 17.21588877 31.71484375 21.1640625 C32.90234375 23.4765625 32.90234375 23.4765625 32.90234375 25.4765625 C33.45921875 25.49332031 34.01609375 25.51007813 34.58984375 25.52734375 C38.76411794 25.99977005 41.15268584 26.62918382 44 29.84765625 C45.32671582 31.79157187 46.63364413 33.74911957 47.921875 35.71875 C50.28851592 39.01430915 52.85249523 40.94676598 56.14453125 43.23828125 C59.65967198 45.71450261 61.58381127 47.88851653 62.44140625 52.1640625 C62.74196038 54.12021144 63.00184152 56.08317318 63.21484375 58.05078125 C63.64452583 60.62108409 63.64452583 60.62108409 65.83203125 61.63671875 C66.51523437 61.91386719 67.1984375 62.19101563 67.90234375 62.4765625 C72.94692552 69.00484479 74.17914574 74.44930468 73.90234375 82.4765625 C74.89234375 82.8065625 75.88234375 83.1365625 76.90234375 83.4765625 C81.89546635 91.04189977 83.15964285 97.59557936 82.6796875 106.609375 C82.94287368 109.99847425 84.11387378 111.63044404 85.90234375 114.4765625 C86.4140625 116.94921875 86.4140625 116.94921875 86.58984375 119.5390625 C86.656875 120.49167969 86.72390625 121.44429688 86.79296875 122.42578125 C86.94043781 126.53911467 86.88076946 130.6368874 86.7421875 134.75 C86.91722479 137.72990308 87.78353963 139.72884817 88.90234375 142.4765625 C89.85643651 150.32009252 89.12450162 157.68592526 84.90234375 164.4765625 C81.93295384 167.756278 78.80693085 170.58214314 74.78125 172.47265625 C71.87208022 174.02703594 70.68987685 176.76643167 68.90234375 179.4765625 C67.91234375 179.8065625 66.92234375 180.1365625 65.90234375 180.4765625 C65.90234375 181.1365625 65.90234375 181.7965625 65.90234375 182.4765625 C63.65477591 183.62738935 61.40452627 184.77233108 59.15234375 185.9140625 C58.518125 186.23955078 57.88390625 186.56503906 57.23046875 186.90039062 C52.42374626 189.32878688 48.85493865 190.65227786 43.48828125 190.43359375 C31.6159243 189.88429078 31.6159243 189.88429078 20.46630859 193.40966797 C10.79186444 197.4353127 -0.82156897 196.71386192 -11.09765625 196.5390625 C-18.58784806 196.43481756 -25.95922051 196.40882176 -33.42578125 197.07421875 C-39.21684938 197.53494596 -44.21321599 197.2003895 -49.84765625 195.8515625 C-51.06811646 195.58230957 -51.06811646 195.58230957 -52.31323242 195.30761719 C-56.71454547 194.27222163 -60.46705052 193.00018195 -64.41015625 190.7265625 C-69.46034423 187.81807727 -73.99734995 188.27411086 -79.69921875 188.484375 C-88.50702929 188.46412716 -97.5122654 184.61377949 -104.09765625 178.8515625 C-106.09765625 176.4765625 -106.09765625 176.4765625 -106.09765625 174.4765625 C-106.67773438 174.34378906 -107.2578125 174.21101562 -107.85546875 174.07421875 C-115.53502992 172.02722771 -120.01604726 168.24312372 -124.09765625 161.4765625 C-126.61420042 157.12169175 -127.46695674 154.12411311 -127.34765625 149.1015625 C-127.32058594 147.89242187 -127.29351562 146.68328125 -127.265625 145.4375 C-127.08588302 141.19893321 -126.90021511 136.96216099 -126.66015625 132.7265625 C-126.62116211 132.0351416 -126.58216797 131.3437207 -126.54199219 130.63134766 C-126.22016043 125.72157087 -126.22016043 125.72157087 -125.09765625 123.4765625 C-124.96836717 121.76994661 -124.86848727 120.06103886 -124.78515625 118.3515625 C-124.2749603 112.08931864 -122.59318106 106.97208731 -118.09765625 102.4765625 C-117.7828249 100.36019622 -117.54518771 98.23208035 -117.34765625 96.1015625 C-116.03635708 85.97541888 -111.82521546 76.50987211 -104.03515625 69.6640625 C-102.09765625 68.4765625 -102.09765625 68.4765625 -99.09765625 68.4765625 C-99.20078125 67.1771875 -99.30390625 65.8778125 -99.41015625 64.5390625 C-99.41893268 58.98358145 -97.43852096 54.85485362 -94.09765625 50.4765625 C-90.60432292 47.4765625 -90.60432292 47.4765625 -88.09765625 47.4765625 C-88.05640625 46.3628125 -88.01515625 45.2490625 -87.97265625 44.1015625 C-86.97368358 36.4742712 -82.64813996 30.39668227 -76.78515625 25.6015625 C-71.34437789 21.72053511 -65.04740764 17.57982038 -58.09765625 18.4765625 C-57.83984375 17.89003906 -57.58203125 17.30351562 -57.31640625 16.69921875 C-54.2458872 11.09945805 -49.05253411 7.46649029 -43.03515625 5.6015625 C-40.10028804 4.8509913 -37.36919523 4.39157538 -34.34765625 4.0390625 C-30.43907392 3.3625771 -28.29561997 1.77075387 -25.09765625 -0.5234375 C-16.87962576 -4.36757408 -8.31633452 -2.97547104 0 0 Z M-26.9609375 13.07421875 C-29.75096186 14.90533163 -31.84779031 14.94558988 -35.16015625 15.1015625 C-38.44462127 15.27207861 -40.96759456 15.4332086 -44.09765625 16.4765625 C-44.09765625 17.1365625 -44.09765625 17.7965625 -44.09765625 18.4765625 C-44.96390625 18.816875 -44.96390625 18.816875 -45.84765625 19.1640625 C-48.27022531 20.34540067 -48.27022531 20.34540067 -49.59765625 22.8515625 C-52.40707638 25.80145364 -53.88188725 26.18398191 -57.72265625 27.2890625 C-64.44360895 29.29629929 -68.99441656 32.76066548 -74.09765625 37.4765625 C-74.96197266 38.20359375 -74.96197266 38.20359375 -75.84375 38.9453125 C-77.49663631 40.96379048 -77.4931874 42.33281139 -77.59765625 44.9140625 C-77.88524062 48.68325333 -78.47931558 50.63054004 -81.09765625 53.4765625 C-81.09765625 54.1365625 -81.09765625 54.7965625 -81.09765625 55.4765625 C-81.86078125 55.7034375 -82.62390625 55.9303125 -83.41015625 56.1640625 C-86.85689767 57.84735482 -87.55978008 58.96141697 -89.09765625 62.4765625 C-89.29132986 64.05915254 -89.47814683 65.64258862 -89.66015625 67.2265625 C-90.6841162 73.2189542 -94.13840255 75.66282893 -98.68359375 79.3828125 C-106.07271739 85.79150226 -107.31574204 95.10586927 -108.33984375 104.35546875 C-109.21488145 107.95936114 -110.75279412 109.65902065 -113.09765625 112.4765625 C-113.77802084 114.68878784 -113.77802084 114.68878784 -113.84765625 116.9140625 C-113.93466797 118.07421875 -113.93466797 118.07421875 -114.0234375 119.2578125 C-114.08647089 121.14217925 -114.06943096 123.02895335 -114.03515625 124.9140625 C-114.09765625 127.4765625 -114.09765625 127.4765625 -116.09765625 129.4765625 C-116.75894222 133.14911206 -116.84440452 136.87845637 -117.03515625 140.6015625 C-117.11572266 141.6225 -117.19628906 142.6434375 -117.27929688 143.6953125 C-117.63995205 150.62345379 -116.78699635 155.21469132 -112.09765625 160.4765625 C-109.13325244 163.05891239 -106.35621419 165.02236114 -102.640625 166.36328125 C-99.73563584 167.6350507 -98.1357917 169.17172435 -95.91015625 171.4140625 C-90.2423765 176.60168151 -84.42556558 178.55422244 -76.78515625 178.7265625 C-73.76550976 178.5218407 -71.04367008 178.10531588 -68.09765625 177.4765625 C-68.02772461 176.9189624 -67.95779297 176.3613623 -67.88574219 175.78686523 C-63.08784744 138.24063902 -63.08784744 138.24063902 -49.140625 126.91015625 C-38.11446893 119.17287274 -21.13977696 120.13238527 -8.28515625 120.1640625 C-6.94465546 120.14828808 -5.60416047 120.13201288 -4.26367188 120.11523438 C4.71199255 120.11077995 13.84659082 120.24863848 20.90234375 126.4765625 C21.23234375 127.4665625 21.56234375 128.4565625 21.90234375 129.4765625 C22.37671875 129.94320312 22.85109375 130.40984375 23.33984375 130.890625 C32.31094201 139.99628973 32.83489651 159.36244882 33.46484375 171.4140625 C33.50802734 172.19330078 33.55121094 172.97253906 33.59570312 173.77539062 C33.70062452 175.67563367 33.80186825 177.57607919 33.90234375 179.4765625 C43.73374987 181.21274698 51.19475116 179.28865314 59.90234375 174.4765625 C59.90234375 173.8165625 59.90234375 173.1565625 59.90234375 172.4765625 C60.56234375 172.4765625 61.22234375 172.4765625 61.90234375 172.4765625 C62.19367188 171.85007812 62.485 171.22359375 62.78515625 170.578125 C66.19511068 163.77966239 66.19511068 163.77966239 69.96484375 162.1640625 C71.41890625 161.82375 71.41890625 161.82375 72.90234375 161.4765625 C76.15185458 158.858901 77.82723946 156.50820358 78.90234375 152.4765625 C79.46957653 146.85265344 79.46957653 146.85265344 77.890625 141.5859375 C76.55238006 138.72960442 76.74439878 136.42347528 76.83984375 133.2890625 C76.89371056 131.35219941 76.92286194 129.41406586 76.90234375 127.4765625 C76.57234375 127.1465625 76.24234375 126.8165625 75.90234375 126.4765625 C75.93450345 124.87150091 76.003003 123.26709576 76.08984375 121.6640625 C76.18822391 118.94658923 76.18822391 118.94658923 75.90234375 116.4765625 C75.22171875 115.8371875 74.54109375 115.1978125 73.83984375 114.5390625 C71.90234375 112.4765625 71.90234375 112.4765625 71.96484375 110.15234375 C72.15046875 108.76595703 72.15046875 108.76595703 72.33984375 107.3515625 C73.1610032 101.01932265 72.57955166 95.02712787 68.62109375 89.77734375 C67.16594874 88.25191671 67.16594874 88.25191671 64.90234375 86.4765625 C62.71092593 84.28514468 63.45100856 79.42238828 63.28125 76.45703125 C62.56826182 70.84868094 59.93618408 68.30871081 55.90234375 64.4765625 C53.45614225 62.030361 53.62998073 61.02418917 53.27734375 57.6640625 C52.72783039 54.56355623 52.43645354 52.97012165 50.1015625 50.8125 C48.00348968 49.52325717 48.00348968 49.52325717 45.875 48.51171875 C42.50233896 46.74190652 41.10719238 44.90407269 39.46484375 41.4765625 C37.84220064 38.36108774 36.90594779 37.19290767 33.90234375 35.4765625 C32.91234375 35.1671875 31.92234375 34.8578125 30.90234375 34.5390625 C27.51628567 33.3398336 26.14140444 32.25608611 23.90234375 29.4765625 C23.46921875 28.4453125 23.03609375 27.4140625 22.58984375 26.3515625 C21.12714647 23.17551222 21.12714647 23.17551222 17.65234375 22.2265625 C16.41484375 21.9790625 15.17734375 21.7315625 13.90234375 21.4765625 C7.73651943 20.20087471 5.74007204 18.39672697 1.90234375 13.4765625 C-3.07472841 9.58146255 -7.7927025 7.89847149 -14.03515625 7.1015625 C-18.9297091 7.7008955 -23.21932569 9.86600234 -26.9609375 13.07421875 Z " fill="#040404" transform="translate(269.09765625,152.5234375)"/>
<path d="M0 0 C2.1875 0.8125 2.1875 0.8125 4.5 2.875 C8.03438236 5.4230431 9.91593345 5.49900177 14.1875 4.8125 C15.89430947 3.18696717 17.56410195 1.52134005 19.1875 -0.1875 C22 -0.5 22 -0.5 24.1875 -0.1875 C25 1.9375 25 1.9375 25.1875 4.8125 C22.62740488 8.54292431 20.39622999 11.13364999 16.1875 12.8125 C8.19758755 13.96347566 3.60027722 12.086496 -2.75 7.375 C-4.25065188 5.168159 -4.02340357 3.41364404 -3.8125 0.8125 C-1.8125 -0.1875 -1.8125 -0.1875 0 0 Z " fill="#0C0C0C" transform="translate(243.8125,233.1875)"/>
<path d="M0 0 C0 1.65 0 3.3 0 5 C-1.7325 5.61875 -1.7325 5.61875 -3.5 6.25 C-5.00099318 6.83077298 -6.50096217 7.41419853 -8 8 C-9.04027344 8.36544922 -9.04027344 8.36544922 -10.1015625 8.73828125 C-15.83569033 11.07399741 -17.88364524 14.46906619 -20.578125 19.953125 C-21.04734375 20.62859375 -21.5165625 21.3040625 -22 22 C-23.32 22 -24.64 22 -26 22 C-26.75 19.9375 -26.75 19.9375 -27 17 C-25.76469929 14.43789483 -24.57772797 12.321132 -23 10 C-22.46375 9.13375 -21.9275 8.2675 -21.375 7.375 C-16.13554162 2.13554162 -7.44639675 -2.48213225 0 0 Z " fill="#E6E6E6" transform="translate(224,187)"/>
<path d="M0 0 C2.4375 1.6875 2.4375 1.6875 4 4 C4.52258446 6.98619691 4.19862599 8.5406774 3 11.3125 C0.29464795 13.59514079 -1.66778695 13.51586547 -5.125 13.3125 C-7 13 -7 13 -9 11.9375 C-10.58433618 8.86784865 -10.36248449 6.38318857 -10 3 C-7.7773391 -1.05308751 -4.20075589 -0.5158823 0 0 Z " fill="#0A0A0A" transform="translate(227,228)"/>
<path d="M0 0 C1.9375 1.125 1.9375 1.125 3 3 C3.54068562 6.63031776 3.46379841 8.32214079 1.375 11.375 C-1.69477548 13.4753727 -3.34556561 13.53293835 -7 13 C-9.375 11.875 -9.375 11.875 -11 10 C-11.61459548 6.38925156 -11.45961289 4.69861159 -9.4375 1.625 C-6.1005787 -0.5996142 -3.93094707 -0.50030235 0 0 Z " fill="#131313" transform="translate(290,228)"/>
<path d="M0 0 C3.18002912 0.26500243 4.74222713 0.77905182 7.1875 2.875 C10.58604034 5.44278604 13.70683919 6.24762018 17.79296875 7.2890625 C20 8 20 8 22 10 C21.625 12.125 21.625 12.125 21 14 C13.08274798 14.565518 8.57690895 12.35923782 2.0625 8.0625 C-0.30905645 5.69094355 -0.82062437 4.31844922 -1 1 C-0.67 0.67 -0.34 0.34 0 0 Z " fill="#E6E6E6" transform="translate(176,313)"/>
<path d="M0 0 C1.8984375 0.27734375 1.8984375 0.27734375 4 1 C8.08515824 9.95592383 9.24664008 21.21028587 9 31 C7.68 31 6.36 31 5 31 C3.6751207 25.29282762 2.48845564 19.56414264 1.375 13.8125 C1.23989014 13.13574219 1.10478027 12.45898438 0.96557617 11.76171875 C0.20771449 7.78477254 -0.13842507 4.04578734 0 0 Z " fill="#E8E8E8" transform="translate(288,298)"/>
<path d="M0 0 C1.32 0 2.64 0 4 0 C5.17085006 3.31740851 5.14152943 4.68324365 3.6875 7.9375 C0.54646907 12.16581087 -4.2326289 14.92850747 -9 17 C-11.81640625 17.1640625 -11.81640625 17.1640625 -14 17 C-14.33 15.35 -14.66 13.7 -15 12 C-14.25234375 11.63648438 -13.5046875 11.27296875 -12.734375 10.8984375 C-6.23792839 7.82913095 -6.23792839 7.82913095 -1.5625 2.625 C-1.046875 1.75875 -0.53125 0.8925 0 0 Z " fill="#E6E6E6" transform="translate(326,312)"/>
<path d="M0 0 C1.65 0 3.3 0 5 0 C6.97902533 3.95805066 6.38205977 8.67748541 5.1875 12.8125 C3.97328382 15.04921402 3.09905807 16.54680595 1 18 C-1.1015625 17.5703125 -1.1015625 17.5703125 -3 17 C-3.55353075 5.47835991 -3.55353075 5.47835991 0 0 Z " fill="#F192AD" transform="translate(307,246)"/>
<path d="M0 0 C1.32 0.33 2.64 0.66 4 1 C5.57587811 6.58720419 4.33657087 10.85336812 2 16 C1.34 16.66 0.68 17.32 0 18 C-3.53571429 17.46428571 -3.53571429 17.46428571 -5 16 C-5.09858603 14.5444063 -5.12972143 13.08392081 -5.125 11.625 C-5.12886719 10.43777344 -5.12886719 10.43777344 -5.1328125 9.2265625 C-5 7 -5 7 -4 4 C-3.34 4 -2.68 4 -2 4 C-1.34 2.68 -0.68 1.36 0 0 Z " fill="#F193AE" transform="translate(295,245)"/>
<path d="M0 0 C2.00720923 0.28674418 4.0085944 0.61866701 6 1 C5.73406847 6.98345934 5.17095916 11.36560093 1 16 C-1.75 16.875 -1.75 16.875 -4 17 C-5.91235111 10.94422147 -3.64370135 6.44110626 -1 1 C-0.67 0.67 -0.34 0.34 0 0 Z " fill="#F190AC" transform="translate(199,244)"/>
<path d="M0 0 C1.98 0.66 3.96 1.32 6 2 C5.53411505 7.70709064 4.06242216 11.15939723 1 16 C-0.66611905 16.042721 -2.33382885 16.04063832 -4 16 C-5 15 -5 15 -5.25 11.8125 C-4.9241609 6.84345371 -3.52537732 3.52537732 0 0 Z " fill="#F192AD" transform="translate(213,246)"/>
<path d="M0 0 C3.37462715 0.54723683 5.08235 1.0549 8 3 C10.32387947 3.39387788 12.65793749 3.73486085 15 4 C15 5.65 15 7.3 15 9 C11.93570224 10.53214888 9.3834358 10.22938548 6 10 C3.68720389 8.84360194 1.82590172 7.82590172 0 6 C-0.04080783 4.00041636 -0.04254356 1.99954746 0 0 Z " fill="#E6E6E6" transform="translate(159,304)"/>
<path d="M0 0 C0.33 1.32 0.66 2.64 1 4 C-5.07439825 8.90153173 -5.07439825 8.90153173 -8.9375 9.3125 C-9.9584375 9.1578125 -9.9584375 9.1578125 -11 9 C-11.8125 7.3125 -11.8125 7.3125 -12 5 C-8.45406879 0.12434459 -5.89837627 -0.57827218 0 0 Z " fill="#E6E6E6" transform="translate(238,179)"/>
<path d="M0 0 C0.25 2.8125 0.25 2.8125 0 6 C-2.2206051 8.467339 -3.43569203 8.96152446 -6.75 9.1875 C-7.4925 9.125625 -8.235 9.06375 -9 9 C-9.33 7.35 -9.66 5.7 -10 4 C-4.5 0 -4.5 0 0 0 Z " fill="#E6E6E6" transform="translate(341,302)"/>
<path d="M0 0 C0.99 0 1.98 0 3 0 C4.85776765 3.13498292 5.20140476 5.37471432 5 9 C3.35 8.67 1.7 8.34 0 8 C-0.38063221 5.6739143 -0.71269945 3.33944736 -1 1 C-0.67 0.67 -0.34 0.34 0 0 Z " fill="#DEDEDE" transform="translate(285,286)"/>
<path d="M0 0 C0.99 0.66 1.98 1.32 3 2 C2.67 3.32 2.34 4.64 2 6 C0.35 6 -1.3 6 -3 6 C-3 4.68 -3 3.36 -3 2 C-3.598125 2.165 -4.19625 2.33 -4.8125 2.5 C-7 3 -7 3 -10 3 C-7.29586623 -0.81760062 -4.39233505 -0.39217277 0 0 Z " fill="#7B7B7B" transform="translate(227,228)"/>
<path d="M0 0 C0.66 0.33 1.32 0.66 2 1 C-1.3 4.3 -4.6 7.6 -8 11 C-8 7.0234755 -6.61988497 5.9109833 -4 3 C-1.75 1.1875 -1.75 1.1875 0 0 Z " fill="#1D1D1D" transform="translate(167,221)"/>
<path d="M0 0 C1.32 0.66 2.64 1.32 4 2 C3.67 2.99 3.34 3.98 3 5 C1.68 5 0.36 5 -1 5 C-0.67 3.35 -0.34 1.7 0 0 Z " fill="#D5D5D5" transform="translate(287,230)"/>
</svg>
